<?xml version="1.0" encoding="UTF-8"?>
<svg id="Layer_2" data-name="Layer 2" xmlns="http://www.w3.org/2000/svg" viewBox="0 0 123.67 123.69">
  <defs>
    <style>
      .cls-1 {
        fill: #efebce;
      }
    </style>
  </defs>
  <g id="Layer_1-2" data-name="Layer 1">
    <g>
      <path class="cls-1" d="M66.59.06c27.52-1.35,52.39,19.17,56.44,46.34,6.7,44.94-40.39,78-80.54,56.39-.89-.48-4.38-2.98-4.91-2.84l-22.58,22.13c-9.82,5.99-19.9-6.1-12.36-14.78l21.1-21.17c-2.12-3.86-4.42-7.58-6-11.73C4.29,39.23,29.32,1.89,66.59.06ZM117.2,54.82c0-26.69-21.64-48.32-48.32-48.32S20.55,28.13,20.55,54.82s21.64,48.32,48.32,48.32,48.32-21.64,48.32-48.32ZM27.85,91.17l-20.07,20.08c-3.4,3.88.75,8.07,4.67,4.67l20.08-20.07-4.67-4.67Z"/>
      <path class="cls-1" d="M113.97,54.82c0,24.91-20.19,45.1-45.1,45.1s-45.1-20.19-45.1-45.1S43.97,9.72,68.87,9.72s45.1,20.19,45.1,45.1ZM107.56,54.83c0-21.35-17.31-38.66-38.66-38.66S30.25,33.48,30.25,54.83s17.31,38.66,38.66,38.66,38.66-17.31,38.66-38.66Z"/>
      <path class="cls-1" d="M81.45,60.96c.41.09.33-.31.44-.6,1.19-2.87,2.1-8,3.52-10.37,2.46-4.1,7.08.98,9.84,1.55,2.46.5,6.92-.94,8.5,1.47,1.31,2,.15,4.67-2.22,4.95-1.52.18-6.08.2-7.54-.03-.79-.12-3.83-2.03-4.09-1.79l-5.21,16.08c-1.44,2.56-4.6,2.68-5.87-.02l-9.46-26.33-.44.6c-2.71,6.78-3.79,15.82-6.65,22.34-1.14,2.6-4.35,2.82-5.84.4l-7.76-15.2c-2.12,1.1-2.84,3.71-5.41,3.94-1.56.14-6.35.2-7.72-.16-2.9-.75-2.7-5.23,0-6.06,1.73-.53,4.95.34,6.35-.29,1.72-.78,4.7-5.82,6.82-6.17,1.33-.22,2.54,0,3.41,1.08l6.38,12.48,7.41-24.45c1.02-2.93,4.74-2.67,6.03,0l9.51,26.57Z"/>
    </g>
  </g>
</svg>