<?xml version="1.0" encoding="UTF-8"?>
<svg id="Layer_2" data-name="Layer 2" xmlns="http://www.w3.org/2000/svg" viewBox="0 0 255.63 225.67">
  <defs>
    <style>
      .cls-1 {
        fill: #efebce;
      }
    </style>
  </defs>
  <g id="Layer_1-2" data-name="Layer 1">
    <g>
      <path class="cls-1" d="M179.85,15.37c18.93.03,37.1,9.14,38.87,29.77,5.15,2.57,12.21,6.84,14.69,12.27,2.19,4.8,1.56,4,4.73,8.24,5,6.7,6.16,13.55,4.27,21.72,16.63,14.8,15.06,39.23,8.85,58.75-4.33,13.63-14.27,27.36-29.5,29.15-4.34,28.01-37.2,34.8-60.49,26.87.63,2.06.3,4.17.55,6.18.67,5.22,4.72,11.55-2.45,13.64-4.71,1.37-15.92,3.2-20.88,3.57-2.1.16-4.6.51-6.19-1.17-2.73-2.9-5.76-19.76-7.23-24.71-3.59-12.1-8.93-23.47-17.95-32.47l-1.03-.47c-23.69,4.44-54.59-2.4-58.22-30.37-16.73-1.32-39.31-8.09-42.31-27.32-.24-1.56.25-3.4-.16-4.83-.32-1.12-3.19-3.85-3.98-5.51-2.4-5.07-1.46-9.32.35-14.31.39-1.08,1.64-2.41,1.69-3.22.1-1.79-1.34-6.11-1.47-8.49-.69-13.58,6.41-26.2,19.38-30.83,2.83-12.69,13.68-19.68,26.49-18.43,3.76-8.11,13.38-12.55,21.86-13.83,2.76-.42,6.36-.19,8.81-.68,1.72-.35,5.19-2.54,7.22-3.26,2.46-.87,8.95-3.41,11.12-2.9,3.77.9,5.35,6.04,2.26,8.79-1.58,1.41-10.73,3.25-11.25,3.98l5.22,11.36c8.5-2.94,17.58-1.53,23.24,5.85,2.53,3.3,4.44,9.88-1.29,10.71-5.26.76-5.08-3.28-7.68-5.74-3.55-3.35-9.35-2.48-13.25-.24-.74,4.87-2.1,14.99-9.26,12.76-5.8-1.81-1.43-8.4-1.01-11.55.97-7.31-2.25-13.64-6.05-19.57-6.87-.1-15.78,1.62-20.13,7.37-2.8,3.7-1.47,7.65-7.49,7.53s-10.65-1.88-15.41,3.01c-3.67,3.78-2.86,8.69-5.02,11.45-1.47,1.86-4.28,2.1-6.28,3.2-9.88,5.44-12.51,13.5-10.89,24.41.3,2,1.54,4.63,1.41,6.5-.16,2.24-2.44,4.16-3.21,6.31-2.87,7.97,4.09,6.47,4.73,12.22s-.89,7.98,3.08,13.39c5.06,6.89,20.37,11.69,28.64,11.83,3.67.06,7.4-2.98,10.21,1.23,1.61,2.41.31,5.3.64,8.35.99,9.18,8.12,15.89,16.34,19.09,20.87,8.14,44.55-2.91,65.7-5.17,2.29-.24,5.8-.83,7.94-.57,5.31.63,5.71,7.72,1.1,9.61-7.81,1.13-15.7,1.9-23.43,3.53-1.1.23-7.34,1.57-7.37,2.1,12.21,14.4,16.71,32.66,20.99,50.63l12.92-1.98c-.21-5.23-1.42-10.43-.97-15.69,1.09-12.77,8.48-5.98,15.96-3.99,17.04,4.52,42.68.83,44.33-20.62-7.97-5.94-17.41-9.02-26.83-11.85-4.5-2.82-2.59-9.22,2.72-9.25,4.33-.03,16.54,5.1,20.73,7.27,2.1,1.09,9.41,6.42,10.36,6.65,3.45.83,10.01-2.92,12.6-5.14,5.5-4.7,8.65-11.42,10.73-18.22,4.96-16.24,7.03-37-7.75-48.67-3.25,0-7.28,1.59-9.5,3.98-3.48,3.75-2.24,12.51-8.67,11.74-7.78-.93-3.07-13.05-.06-16.97,4.34-5.66,10.57-7.69,17.27-9.28.12-3.98.24-6.92-2.27-10.19-1.27-1.66-4.49-3.42-5.19-4.79-1.24-2.4-.3-4.91-2.56-7.92-5.31-7.07-17.61-8.28-24.62-3.16-2.51,1.83-2.85,3.49-4.56,5.42-4.23,4.78-11.16.86-8.19-5.69,3.64-8.02,13.84-13.09,22.4-12.79-1.27-11.26-11.07-16.4-21.28-17.9-3.08-.45-10.54-.08-12.54-.94-1.86-.8-2.28-3.54-3.4-5.08-4.82-6.66-14.85-4.06-21.82-4.15-4.44-2.36-11.4-2.46-15.62-4.34-1.98-.88-3.42-3.02-3.21-5.22.92-9.22,16.18-.77,20.77-.46,3.32.23,7.76-.64,11.43-.36,6.61.52,14.08,3.9,17.31,9.89Z"/>
      <path class="cls-1" d="M76.77,91.94c3.06-.69,6.11.97,6.6,4.17,1.26,8.29-3.47,17.1-9.95,21.96,1.34,2.32,2.56,4.58,3.23,7.21,1.1,4.29,3.03,15.19-4.44,14.46-6.03-.58-4.21-8.53-5.43-12.58-1.69-5.61-7.04-8.09-12.57-8.39-3.48-.19-7.12,1.62-9.36-2.13-.57-.96-1.01-1.88-.89-3.05.69-7.15,13.41-4.62,17.97-3.55,1.1.26,2.4,1.21,3.29,1.26,2.93.17,7.76-7.83,8.15-10.78s-.92-7.62,3.39-8.59Z"/>
      <path class="cls-1" d="M216.78,134.35c-.71,3.57-1.46,6.83-.37,10.42,1.3,4.28,8.11,7,4.04,11.96-5.49,6.69-12.51-4.67-13.82-9.67s-.77-9.15.02-14.24c-5.15-1.46-17.46-12.08-12.13-17.49s8.74,3.34,11.95,5.94c3.83,3.1,7.07,3.65,11.82,2.36,4.21-1.15,10.71-8.08,14.09-1.81,3.73,6.93-10.78,11.7-15.6,12.53Z"/>
      <path class="cls-1" d="M135.33,97.33c-1.15,4.79-11.57,12.42-16.18,11.97s-6.01-6.72-1.97-9.4c3.33-2.2,8.29-3.14,9.66-7.86.08-1.65-2.26-2.95-3.21-4.24-2.57-3.46-7.75-12.72-7.08-16.94.72-4.53,6.99-5.63,9.3-1.75.92,1.55,1.32,4.5,2.1,6.38,2.91,6.98,8.81,12.56,16.33,14.12,4.25.88,11.37-.66,11.53,5.48.23,8.8-15.96,4.1-20.48,2.22Z"/>
      <path class="cls-1" d="M68.27,71.53c2.92,3.16.69,6.72-2.4,8.53-7.28,4.26-17.12,4.73-24.16-.2-3.74,2.85-10.36,9.04-15.41,6.43-.89-.46-1.97-1.8-2.2-2.78-1.46-6.32,4.71-6.07,8.33-8.92,4.59-3.61,4.86-7.42,4.53-12.93-.1-1.68-1.08-3-.79-4.76.62-3.81,4.78-5.46,7.97-3.41,3.68,2.36,3.01,13.14,2.39,17.06,3.06,3.54,7.15,3.15,11.29,1.97,3.43-.98,7.17-4.52,10.45-.97Z"/>
      <path class="cls-1" d="M163.66,69.97c5.19-.63,14.02,10.2,16.18,14.54,4.64,9.35,4.33,23.53-2.17,31.94-3.52,4.56-9.48,2.52-9.42-2.42.02-1.87,3.74-8.27,4.37-11.6,1.79-9.33-2.08-15.49-8.61-21.56-1.67-1.55-4.13-1.97-4.64-4.88-.47-2.66,1.55-5.69,4.28-6.02Z"/>
      <path class="cls-1" d="M104.52,138.1c-3.32-3.67-.29-8.91,5.04-8.29,4.81.56,7.67,2.23,13.4,1.34,7.27-1.13,8.64-6.04,12.83-10.13s10.57-.26,8.1,5.6c-3.13,7.42-12.55,13.51-20.37,14.57-4.22.57-16.1.12-19-3.09Z"/>
      <path class="cls-1" d="M132.5,33.27c-1.77-1.78-1.55-4.62-.17-6.56,2.86-4.02,13.76-2.55,17.96-.99,4.56,1.68,8.33,5.08,10.7,9.27,2.11,3.73,5.35,11.6-.34,13.55-6.13,2.1-6.36-5.03-8.25-8.45s-6.37-6-10.42-6.1c-3.23-.08-6.63,2.17-9.48-.71Z"/>
      <circle class="cls-1" cx="167.37" cy="153.82" r="5.03"/>
      <circle class="cls-1" cx="115.56" cy="5" r="5"/>
    </g>
  </g>
</svg>