<?xml version="1.0" encoding="UTF-8"?>
<svg id="Layer_2" data-name="Layer 2" xmlns="http://www.w3.org/2000/svg" viewBox="0 0 190.91 180.51">
  <defs>
    <style>
      .cls-1 {
        fill: #efebce;
      }
    </style>
  </defs>
  <g id="Layer_1-2" data-name="Layer 1">
    <path class="cls-1" d="M175.13,120.9c15.66-4.14,20.23,21.17,5.31,23.54-12.77,2.03-19.04-10.41-12-20.35l-7.38-12.36-36.15-.19-20.25,34.14c-.94.68-1.99.64-3.08.74-11.92,1.08-25.22-1.12-37.28.28l-7.55,12.88c1.76,4.03,3.04,6.6,2.41,11.25-.53,3.92-4.3,8.01-8.07,9.1-16.1,4.67-23.87-20.12-4.74-23.87,1.21-.24,2.91.44,3.34.2.73-.4,7.67-12.73,7.6-13.95l-17.28-30.79-16.02-.13c-6.03,15.91-29.47,6.58-22.82-8.68,4.56-10.47,18.97-9.23,22.82,1.1l16.02-.13c5.91-9.84,11.11-21.12,17.41-30.62.79-1.19,2.15-3.73,3.51-4.13l39.66-.44,20.37-34.34,40.1-.64,8.18-12.88c-.35-2.45-2.14-3.46-2.47-6.18-1.27-10.61,8.82-18.09,18.29-12.55,7.88,4.61,7.66,15.89.16,20.77-3.49,2.27-6.42.98-9.84,2.25l-7.33,12.46,19.16,34.95-.54,2.68-18.5,31.81c-.59,2.89,6.06,10.76,6.97,14.11ZM183.23,12.22c0-2.48-2.01-4.49-4.5-4.49s-4.5,2.01-4.5,4.49,2.01,4.49,4.5,4.49,4.5-2.01,4.5-4.49ZM124.91,103.64l35.73.03,18.1-31.28-17.69-30.63-35.83-.33-18.17,31.38,17.85,30.83ZM64.73,76.53l-18.1,30.85c4.15,7.92,8.49,15.88,13.11,23.54,1.06,1.75,4.05,7.57,5.52,7.84l35.34-.31,17.69-30.64-17.13-30.37-2.13-1.05-34.31.14ZM16.77,107.59c0-2.49-2.02-4.51-4.52-4.51s-4.52,2.02-4.52,4.51,2.02,4.51,4.52,4.51,4.52-2.02,4.52-4.51ZM182.09,132.58c0-2.49-2.02-4.52-4.52-4.52s-4.52,2.02-4.52,4.52,2.02,4.52,4.52,4.52,4.52-2.02,4.52-4.52ZM51.75,168.25c0-2.49-2.02-4.51-4.52-4.51s-4.52,2.02-4.52,4.51,2.02,4.51,4.52,4.51,4.52-2.02,4.52-4.51Z"/>
  </g>
</svg>