<?xml version="1.0" encoding="UTF-8"?>
<svg id="Layer_2" data-name="Layer 2" xmlns="http://www.w3.org/2000/svg" viewBox="0 0 13.39 13.39">
  <defs>
    <style>
      .cls-1 {
        fill: #efebce;
      }
    </style>
  </defs>
  <g id="Layer_1-2" data-name="Layer 1">
    <g>
      <path class="cls-1" d="M12.28,1.11C11.62.45,10.69.09,9.5.04c-.73-.03-.97-.04-2.81-.04s-2.08,0-2.81.04c-1.19.05-2.13.41-2.78,1.07S.1,2.7.04,3.89c-.03.73-.04.97-.04,2.81s0,2.08.04,2.81c.05,1.19.41,2.13,1.07,2.78.65.65,1.59,1.01,2.78,1.07.73.03.97.04,2.81.04s2.08,0,2.81-.04c1.19-.05,2.13-.41,2.78-1.07s1.01-1.59,1.07-2.78c.03-.73.04-.97.04-2.81s0-2.08-.04-2.81c-.05-1.19-.41-2.13-1.07-2.78ZM12.37,9.45c-.04.95-.3,1.65-.78,2.13-.49.49-1.17.74-2.13.78-.72.03-.94.04-2.76.04s-2.04,0-2.76-.04c-.94-.04-1.66-.31-2.13-.78-.48-.48-.74-1.18-.78-2.13-.03-.72-.04-.93-.04-2.76s0-2.04.04-2.76c.04-.94.31-1.66.78-2.14s1.18-.74,2.13-.78c.72-.03.94-.04,2.76-.04s2.04,0,2.76.04c.95.04,1.65.3,2.13.78s.74,1.17.78,2.14c.03.72.04.93.04,2.76s0,2.04-.04,2.76Z"/>
      <path class="cls-1" d="M6.69,3.32c-1.86,0-3.37,1.51-3.37,3.37s1.51,3.37,3.37,3.37,3.37-1.51,3.37-3.37-1.51-3.37-3.37-3.37ZM6.69,9.09c-1.32,0-2.4-1.08-2.4-2.4s1.08-2.4,2.4-2.4,2.4,1.08,2.4,2.4-1.08,2.4-2.4,2.4Z"/>
      <path class="cls-1" d="M10.33,2.36c-.38,0-.69.31-.69.69s.31.69.69.69.69-.31.69-.69-.31-.69-.69-.69Z"/>
    </g>
  </g>
</svg>