<?xml version="1.0" encoding="UTF-8"?>
<svg id="Layer_2" data-name="Layer 2" xmlns="http://www.w3.org/2000/svg" viewBox="0 0 170.08 126.44">
  <defs>
    <style>
      .cls-1 {
        fill: #ca8a47;
      }
    </style>
  </defs>
  <g id="Layer_1-2" data-name="Layer 1">
    <g>
      <path class="cls-1" d="M169.7,87.01c-2.08-1.52-4.71-3.27-7.87-5-4.51-2.45-12.8-6.87-24.17-7.88-1.56-.14-3.65-.31-6.13-.31-5.21,0-12.15.77-19.53,4.25.13-2.59.14-5.45-.09-8.51-.52-6.96-2.03-12.14-3.27-16.34-2.05-6.92-4.31-11.73-8.06-19.61-5.13-10.79-7.03-12.82-9.8-20.7-1.68-4.77-2.66-8.77-3.27-11.76,0-.03-.01-.07-.02-.1-.14-.7-.71-1.05-1.27-1.05s-1.13.35-1.27,1.05c0,.03-.01.07-.02.1-.61,2.99-1.58,6.99-3.27,11.76-2.78,7.88-4.67,9.91-9.8,20.7-3.75,7.87-6.01,12.69-8.06,19.61-1.24,4.2-2.75,9.38-3.27,16.34-.27,3.54-.22,6.81-.02,9.7-.88-.45-1.67-.83-2.32-1.13-7.42-3.52-14.4-4.3-19.64-4.3-2.48,0-4.57.17-6.13.31-11.37,1.01-19.67,5.43-24.17,7.88-3.16,1.72-5.79,3.47-7.87,5-.67.49-.41,1.55.42,1.66.78.1,1.65.24,2.59.41,0,0,7.11,1.3,13.87,4.5,10.15,4.8,17.24,14.94,24.79,20.1,4.37,2.99,10.74,5.57,20.33,5.57,4.2,0,9.02-.5,14.56-1.67,3.08,3.65,6.05,6.48,8.43,8.55.25.21.55.32.85.32s.61-.11.85-.32c2.29-1.99,5.13-4.69,8.09-8.14,4.7.88,8.86,1.27,12.54,1.27,9.59,0,15.96-2.58,20.33-5.57,7.55-5.16,14.64-15.3,24.79-20.1,6.76-3.2,13.87-4.5,13.87-4.5.94-.17,1.81-.3,2.59-.41.83-.11,1.1-1.17.42-1.66ZM99.68,112.27c-1.09-.15-2.2-.34-3.34-.55-.21-.04-.42-.07-.63-.11-.06-1.32-.03-2.77.13-4.28.26-2.48.87-5.17,2.04-7.9,1.53-3.55,3.66-6.34,5.94-8.54,1.28-1.24,2.61-2.29,3.91-3.19,1.2-.83,2.37-1.53,3.45-2.12,1.3-.71,2.48-1.27,3.42-1.72,5.15-2.44,10.84-3.68,16.91-3.68,2.15,0,4,.15,5.56.29,7.75.69,13.87,3.16,18.12,5.26-1.66.6-3.39,1.3-5.11,2.11-7.09,3.35-12.64,8.73-17.54,13.47-2.87,2.78-5.58,5.4-8.12,7.13-4.39,3-9.86,4.46-16.74,4.46-2.5,0-5.19-.22-8.02-.62ZM80.45,112.41c-.82-1.02-1.84-2.28-2.93-3.78-1.45-1.98-3.05-4.38-4.58-7.23-.89-1.65-1.75-3.45-2.55-5.41-.78-1.93-1.5-4-2.11-6.24-.13-.49-.28-1.06-.42-1.69-.31-1.34-.64-2.97-.91-4.87-.51-3.59-.82-8.1-.43-13.2.49-6.46,1.9-11.24,3.04-15.09,1.87-6.32,3.83-10.54,7.72-18.73,1.91-4.01,3.33-6.73,4.59-9.13,1.66-3.18,2.96-5.65,4.36-9.2,1.4,3.54,2.69,6.02,4.36,9.2,1.26,2.4,2.68,5.12,4.59,9.13,3.9,8.19,5.85,12.41,7.72,18.73,1.14,3.84,2.55,8.63,3.04,15.09.32,4.3.15,8.17-.21,11.44-4.7,2.96-10.32,7.73-13.66,15.48-3.16,7.34-2.93,14.19-2.4,18.22-1.11,1.24-2.24,2.46-3.43,3.62-1.97-1.92-3.82-3.96-5.55-6.09-.07-.09-.15-.17-.22-.25ZM62.38,112.89c-6.88,0-12.35-1.46-16.74-4.46-2.54-1.73-5.25-4.36-8.12-7.13-4.9-4.74-10.45-10.11-17.54-13.47-1.72-.81-3.46-1.52-5.11-2.12,4.25-2.1,10.38-4.57,18.12-5.26,1.56-.14,3.41-.29,5.56-.29,6.07,0,11.76,1.24,16.91,3.68,1.55.73,3.72,1.77,6.06,3.29.38,1.99.76,3.44.96,4.19,2.49,9.12,6.6,15.9,10.03,20.6-3.62.62-7.02.95-10.14.95Z"/>
      <path class="cls-1" d="M44.2,56.62c2.11,0,3.82-1.71,3.82-3.82s-1.71-3.82-3.82-3.82-3.82,1.71-3.82,3.82,1.71,3.82,3.82,3.82Z"/>
      <path class="cls-1" d="M125.88,56.62c2.11,0,3.82-1.71,3.82-3.82s-1.71-3.82-3.82-3.82-3.82,1.71-3.82,3.82,1.71,3.82,3.82,3.82Z"/>
      <path class="cls-1" d="M33.15,43.15c1.47,0,2.65-1.19,2.65-2.65s-1.19-2.65-2.65-2.65-2.65,1.19-2.65,2.65,1.19,2.65,2.65,2.65Z"/>
      <path class="cls-1" d="M136.23,43.15c1.47,0,2.65-1.19,2.65-2.65s-1.19-2.65-2.65-2.65-2.65,1.19-2.65,2.65,1.19,2.65,2.65,2.65Z"/>
    </g>
  </g>
</svg>