<?xml version="1.0" encoding="UTF-8"?>
<svg id="Layer_2" data-name="Layer 2" xmlns="http://www.w3.org/2000/svg" viewBox="0 0 443.51 21.74">
  <defs>
    <style>
      .cls-1 {
        fill: #ca8a47;
      }
    </style>
  </defs>
  <g id="Layer_1-2" data-name="Layer 1">
    <path class="cls-1" d="M442.09,7.32c-2.63-1.58-2.45-3.22-4.27-5.19-6.47-6.99-7.82,5.43-12.4,5.52-4.38.09-4.75-7.59-9.44-7.56-4.21.03-4.85,7.23-8.77,7.51-.08-.05-.87.03-1.41-.29-2.63-1.58-2.45-3.22-4.27-5.19-.08-.09-.16-.16-.24-.25-.54-.68-1.16-1.23-1.94-1.52-4.67-2.34-6.21,7.2-10.22,7.29-4.38.09-4.75-7.59-9.44-7.56-4.11.03-4.82,6.88-8.48,7.48-.3-.01-.8-.04-1.17-.26-2.63-1.58-2.45-3.22-4.27-5.19-6.47-6.99-7.82,5.43-12.4,5.52-4.38.09-4.75-7.59-9.44-7.56-4.21.03-4.85,7.23-8.77,7.51-.08-.05-.87.03-1.41-.29-2.63-1.58-2.45-3.22-4.27-5.19-.08-.09-.16-.16-.24-.25-.54-.68-1.16-1.23-1.94-1.52-4.67-2.34-6.21,7.2-10.22,7.29-4.38.09-4.75-7.59-9.44-7.56-4.17.03-4.83,7.08-8.63,7.51-.09-.05-.87.03-1.4-.29-2.63-1.58-2.45-3.22-4.27-5.19-6.47-6.99-7.82,5.43-12.4,5.52-4.38.09-4.75-7.59-9.44-7.56-4.21.03-4.85,7.23-8.77,7.51-.08-.05-.87.03-1.41-.29-2.63-1.58-2.45-3.22-4.27-5.19-.08-.09-.16-.16-.24-.25-.54-.68-1.16-1.23-1.94-1.52-4.67-2.34-6.21,7.2-10.22,7.29-4.38.09-4.75-7.59-9.44-7.56-4.11.03-4.82,6.88-8.48,7.48-.3-.01-.8-.04-1.17-.26-2.63-1.58-2.45-3.22-4.27-5.19-6.47-6.99-7.82,5.43-12.4,5.52-4.38.09-4.75-7.59-9.44-7.56-4.21.03-4.85,7.23-8.77,7.51-.08-.05-.87.03-1.41-.29-2.63-1.58-2.45-3.22-4.27-5.19-.08-.09-.16-.16-.24-.25-.54-.68-1.16-1.23-1.94-1.52-4.67-2.34-6.21,7.2-10.22,7.29-4.38.09-4.75-7.59-9.44-7.56-4.41.03-4.9,7.93-9.33,7.52,0-.02-.07-.02-.17-.03-3.7-.54-4.06-7.18-8.17-7.42-4.31-1.5-5.88,7.4-9.75,7.48-4.38.09-4.75-7.59-9.44-7.56-4.21.03-4.85,7.23-8.77,7.51-.08-.05-.87.03-1.41-.29-2.63-1.58-2.45-3.22-4.27-5.19-.08-.09-.16-.16-.24-.25-.54-.68-1.16-1.23-1.94-1.52-4.67-2.34-6.21,7.2-10.22,7.29-4.38.09-4.75-7.59-9.44-7.56-4.11.03-4.82,6.88-8.48,7.48-.3-.01-.8-.04-1.17-.26-2.63-1.58-2.45-3.22-4.27-5.19-6.47-6.99-7.82,5.43-12.4,5.52-4.38.09-4.75-7.59-9.44-7.56-4.21.03-4.85,7.23-8.77,7.51-.08-.05-.87.03-1.41-.29-2.63-1.58-2.45-3.22-4.27-5.19-.08-.09-.16-.16-.24-.25-.54-.68-1.16-1.23-1.94-1.52-4.67-2.34-6.21,7.2-10.22,7.29C23.14,7.75,22.77.07,18.09.1c-4.42.03-4.9,7.98-9.37,7.52C4.76,7.2,4.58-.08,0,.15v13.94c0,.12,1.42.3,2.23.99,2.74,2.33,3.78,8.31,8.67,6.21,2.31-.99,4.1-7.1,7.18-7.15,4.33-.08,4.52,6.89,8.49,7.41,5.4.7,5.55-7.32,9.71-7.48v.02c0,.12,1.42.3,2.23.99,2.74,2.33,3.78,8.31,8.67,6.21,2.31-.99,4.1-7.1,7.18-7.15,4.33-.08,4.52,6.89,8.49,7.41,5.18.67,5.53-6.69,9.22-7.43.19.12,1.45.33,2.19.96,2.74,2.33,3.78,8.31,8.67,6.21,2.31-.99,4.1-7.1,7.18-7.15,4.33-.08,4.52,6.89,8.49,7.41,5.4.7,5.55-7.32,9.71-7.48v.02c0,.12,1.42.3,2.23.99,2.74,2.33,3.78,8.31,8.67,6.21,2.31-.99,4.1-7.1,7.18-7.15,4.33-.08,4.52,6.89,8.49,7.41,5.48.71,5.54-7.57,9.88-7.5.15,0,.28.04.42.06.08.07.53.17,1.05.36,2.63,1.48,3.69,6.49,6.74,7.05.84.32,1.83.32,3.07-.22,2.31-.99,4.1-7.1,7.18-7.15,4.33-.08,4.52,6.89,8.49,7.41,5.4.7,5.55-7.32,9.71-7.48v.02c0,.12,1.42.3,2.23.99,2.74,2.33,3.78,8.31,8.67,6.21,2.31-.99,4.1-7.1,7.18-7.15,4.33-.08,4.52,6.89,8.49,7.41,5.18.67,5.53-6.69,9.22-7.43.19.12,1.45.33,2.19.96,2.74,2.33,3.78,8.31,8.67,6.21,2.31-.99,4.1-7.1,7.18-7.15,4.33-.08,4.52,6.89,8.49,7.41,5.4.7,5.55-7.32,9.71-7.48v.02c0,.12,1.42.3,2.23.99,2.74,2.33,3.78,8.31,8.67,6.21,2.31-.99,4.1-7.1,7.18-7.15,4.33-.08,4.52,6.89,8.49,7.41,5.34.69,5.55-7.13,9.57-7.46h0c0,.13,1.42.31,2.23,1,2.74,2.33,3.78,8.31,8.67,6.21,2.31-.99,4.1-7.1,7.18-7.15,4.33-.08,4.52,6.89,8.49,7.41,5.4.7,5.55-7.32,9.71-7.48v.02c0,.12,1.42.3,2.23.99,2.74,2.33,3.78,8.31,8.67,6.21,2.31-.99,4.1-7.1,7.18-7.15,4.33-.08,4.52,6.89,8.49,7.41,5.18.67,5.53-6.69,9.22-7.43.19.12,1.45.33,2.19.96,2.74,2.33,3.78,8.31,8.67,6.21,2.31-.99,4.1-7.1,7.18-7.15,4.33-.08,4.52,6.89,8.49,7.41,5.4.7,5.55-7.32,9.71-7.48v.02c0,.12,1.42.3,2.23.99,2.74,2.33,3.78,8.31,8.67,6.21,2.31-.99,4.1-7.1,7.18-7.15,4.33-.08,4.52,6.89,8.49,7.41,5.48.71,5.54-7.57,9.88-7.5,4.12.07,4.76,7.99,9.16,7.51V7.62c0-.07-.86.04-1.42-.3Z"/>
  </g>
</svg>