<?xml version="1.0" encoding="UTF-8"?>
<svg id="Layer_2" data-name="Layer 2" xmlns="http://www.w3.org/2000/svg" viewBox="0 0 111.98 223.5">
  <defs>
    <style>
      .cls-1 {
        fill: #efebce;
      }
    </style>
  </defs>
  <g id="Layer_1-2" data-name="Layer 1">
    <g>
      <path class="cls-1" d="M44.01,159.22c-.73-.15-.5.57-.64,1.09-4.43,16.43-7.22,35.49-12.56,51.32-6.4,18.92-33.29,12.1-30.61-7.18l15.53-94.25c1.5-5.73,8.93-3.93,7.84,1.86l-15.41,96.28c.86,7.06,10.84,8.77,14.2,2.81.52-.92.76-1.92,1.08-2.91,6.55-19.98,8.64-44.79,15.74-64.1,1.67-4.53,5.52-4.66,7.87-.66l23.31,68c5.91,8.4,17.99,2.7,15.35-7.37-7.96-24.63-20.42-49.31-27.84-73.95-2.2-7.3-6.6-26.02,2.28-29.92,4.4-1.93,6.82-.06,10.27,2.39s12.36,9.11,14.96,11.98c2.38,2.63,2.63,5.22.97,8.35l-15.3,18.65,4.17,12.13,1.5-1c7.34-10.67,18.17-20.47,25.39-30.99,3.26-4.75,2.18-7.57-1.7-11.2-7.32-6.85-17.04-12.52-24.47-19.43-2.09-3.65,1.44-7.87,5.3-5.8,7.66,6.81,17.46,12.61,24.88,19.51,6.27,5.83,7.75,12.62,3.35,20.3l-30.53,37.84,14.83,40.05c3.74,18.21-19.04,28.27-30.01,13.06l-19.74-56.86ZM63.47,107.81c-1.53,8.69.12,17.24,4.24,24.94l10.67-13.14-14.91-11.8Z"/>
      <path class="cls-1" d="M85.24,21.3c5-5,1.15-14.04-6.06-13.32l-44.9,13.98c-3.23,2.74-4.88,5.41-5.25,9.72-1.32,15.29,1.24,32.47-.05,47.86-.23,2.74-2.11,14.98-3.04,16.92-1.61,3.36-6.73,2.86-7.36-.4-.84-4.41,2.15-13.42,2.5-18.44,1.08-15.27-1.36-32.3-.01-47.42.74-8.3,6.14-14.33,13.7-17.23C48.47,7.73,64.22,4.69,78.24.08c12.49-1.2,21.61,12.27,15.37,23.36-5.34,9.5-27.22,12.17-37.12,16.76-4.14,1.92-3.72,3.67-3.49,7.97.27,5.1,1.67,10.9,4.08,15.38,1.26,2.34,5.31,5.93,1.18,8.37-5.85,3.45-10.44-8.36-11.51-12.5-2.55-9.9-4.55-21.64,6.4-26.54,6.34-2.84,28.63-8.09,32.09-11.56Z"/>
      <path class="cls-1" d="M83.79,35.57c17.02-2.32,28.77,14.31,21.25,29.75-6.55,13.45-25.71,20.15-37.09,8.29-13.16-13.7-1.21-35.72,15.84-38.04ZM84.79,43.56c-10.14,1.33-18.88,14.4-11.85,23.57,6.94,9.05,20.75,3.62,25.03-5.4,4.6-9.72-2.51-19.58-13.18-18.18Z"/>
    </g>
  </g>
</svg>