<?xml version="1.0" encoding="UTF-8"?>
<svg id="Layer_2" data-name="Layer 2" xmlns="http://www.w3.org/2000/svg" viewBox="0 0 123.67 136.39">
  <defs>
    <style>
      .cls-1 {
        fill: #efebce;
      }
    </style>
  </defs>
  <g id="Layer_1-2" data-name="Layer 1">
    <path class="cls-1" d="M82.62,85.98h34.43c.28,0,2.1.76,2.5.96,2.99,1.52,4.54,4.52,3.96,7.88-.11.63-.94,2-.93,2.19.02.22.63.63.79,1,.33.75.38,10.23.21,11.51-.08.63-.94,1.72-1.48,1.72h-7.31v24.07c0,.29-1.09.85-1.48.92-1.65.26-6.48.19-8.24.03-.66-.06-1.98-.39-1.98-1.21v-23.8H20.67v24.07c0,.29-1.09.85-1.48.92-1.65.26-6.48.19-8.24.03-.66-.06-1.98-.39-1.98-1.21v-23.8H1.66c-.25,0-1.5-1.01-1.46-1.47.45-4.97-.64-11.1.02-15.93.34-2.53,2.97-4.83,5.56-4.68l-2.6-4.45c-4.32-12.23,10.07-22.06,19.74-13.89,2.14,1.81,3.34,4.33,4.26,6.9.88-.54,1.67-1.2,2.61-1.64s3.43-1.28,4.3-1.28h6.25l2.73-43.41c.9-4.69,4.16-8.54,8.71-10.04-10.14-10.41,2.41-26.88,15.13-19.52,9,5.2,7.6,18.14-1.57,22.32,1.62,1.28,3.26,2.59,4.78,3.98,10.77,9.86,21.12,20.2,31.91,30.05,6.33,1.13,17.13-2.88,19.33,5.67,1.33,5.17-2.72,9.24-7.75,9.37l-23.54.12-7.44,12.63ZM69.26,12.52c0-4.81-3.9-8.71-8.71-8.71s-8.71,3.9-8.71,8.71,3.9,8.71,8.71,8.71,8.71-3.9,8.71-8.71ZM96.44,58.32c-1.25-1.44-2.61-2.81-3.98-4.13-9.94-9.53-20.1-19.04-30.6-27.9-8.06-4.67-15.65.11-15.35,9.21,1.96,6.64,2.37,14.41,4.33,20.96.59,1.99,1.35,3.06,3.25,3.92,6.49,2.94,14.88,4.42,21.6,7.12,4.12.02,5.56-5.07,1.71-7.03-5.26-2.68-13.2-3.62-18.52-6.21-.29-.14-.63-.2-.85-.48l-4.36-20.09c.4-2.14,3.1-2.48,3.77-.34l3.7,17.71,2.86.86.6-10.97c.4-2.05,1.66-2.64,3.4-1.4l18.73,18.76h9.7ZM82.35,59.38l-13.56-13.69-.8-.4c.27,2.69-.53,5.32-.15,7.99l11.31,3.85,3.2,2.25ZM44.06,74.81h11.57c1.59-2.77,3.79-5.25,7.31-5.05l-.04-2.23c-5.31-2.86-13.19-2.45-15.46-9.26-.84-2.52-.95-5.37-1.65-7.93l-1.73,24.47ZM60.02,97.14h55.97c.09,0,1.58-.5,1.79-.6,3.5-1.66,2.33-6.17-1.32-6.78l-37.17-.06c-2.16-.25-2.41-2.08-1.24-3.64l9.8-16.32c.38-.23.83-.22,1.27-.26,7.73-.66,16.45.64,24.22.02,6.19-.49,5.67-7.02,1.07-7.47-9.08.65-19.25-.82-28.21,0-1.04.1-1.81.43-2.74.85.04,2.19-.67,4.8-2.3,6.34-.77.72-2.14,1.12-2.8,1.72-1.42,1.31-2.75,5.55-4.13,7.04-1.04,1.13-3.37.08-3.98.81l-10.23,18.35ZM73.84,70.82l-7.18-2.13c-.45,2.47.49,1.98,1.7,3.22.83.86,1.14,2.02,1.93,2.85,1.96.66,2.87-2.54,3.55-3.95ZM23.55,80.38c0-4.82-3.9-8.72-8.72-8.72s-8.72,3.9-8.72,8.72,3.9,8.72,8.72,8.72,8.72-3.9,8.72-8.72ZM53.37,78.53h-19.01c-1.51,0-4.45,1.6-5.55,2.69-4.77,4.72-2.93,13.37,3.5,15.32,3.46,1.05,15.91.96,19.86.6,1.59-.14,3.11-.61,4.3-1.69l9.95-17.04c1.38-4.11-3.57-6.89-6.4-3.47s-4.95,9.24-7.5,12.98c-.81,1.2-.86,1.65-2.46,1.79-3.45.31-11.54.39-14.91,0-2.42-.28-2.77-2.83-.52-3.72l14.58-.05,4.16-7.4ZM25.98,97.14l-2.83-4.21-18.17.1c-1.57.96-.99,2.54-1.07,4.12h22.07ZM3.92,100.87v6.65h115.92v-6.65H3.92ZM16.94,111.24h-4.25v21.27h4.25v-21.27ZM106.81,111.24v21.27h4.25v-21.27h-4.25Z"/>
  </g>
</svg>