<?xml version="1.0" encoding="UTF-8"?>
<svg id="Layer_2" data-name="Layer 2" xmlns="http://www.w3.org/2000/svg" viewBox="0 0 150.41 150.78">
  <defs>
    <style>
      .cls-1 {
        fill: #efebce;
      }
    </style>
  </defs>
  <g id="Layer_1-2" data-name="Layer 1">
    <g>
      <path class="cls-1" d="M78.24,6.86c.5-3.5,4-6.21,7.39-6.5,13.2-1.14,28.02.88,41.39,0,3.7.62,6.46,3.27,6.81,7.09.86,9.37-.65,20.07-.04,29.58-.23,1.67-1.7,3.81-3.01,4.84-.78.61-2.17.59-2.11,1.81v39.59c.86,2.41,2.08,4.53,2.6,7.08,1.94,9.49-2.16,17.82-9.83,23.26,13.73,3.53,24.96,15.66,28.13,29.41.54,2.35,2.18,7.42-1.39,7.75l-76.71-.02c-2.89-.47-1.69-4.71-1.29-6.69.96-4.69,2.93-9.15,5.35-13.23H21.61c-.61,0-1.58-1.23-1.68-1.95-.3-2.26-.17-8.46.77-10.44,1.23-2.6,5.62-5.43,8.46-5.43h13.44v-9.82l-.45-.45H10.13c-4.37,0-9.92-6.08-10.09-10.45l-.04-67.63c.05-5.3,5.71-11.31,11.04-11.31h67.21c.2-2.03-.28-4.53,0-6.49ZM92.44,43.25c2.84-.9,6.41-4.42,9.24-4.8,7.5-1.02,17.17.88,24.75-.02,1.17-.14,1.92-.75,2.43-1.8V7c-.53-1.24-1.76-1.69-3.02-1.81-12.49-1.21-26.91.95-39.6,0-1.33-.09-2.25.89-2.93,1.9l-.16,29c.93,3.56,4.57,1.99,7.3,2.36,4.5.61,1.77,4.57,1.99,4.8ZM78.24,18.19H11.64c-.52,0-2.82.81-3.39,1.15-2.01,1.18-3.27,3.65-3.42,5.94v66.15c-.21,2.4,3.38,6.5,5.6,6.5h78.08c-.86-3.78.12-7.58,1.21-11.17H9.53c-.5,0-2-2.4-1.67-3.16V25.88c-.27-1.2,1.41-4.37,2.58-4.37h67.81v-3.32ZM78.24,26.34H12.7v55.57h79.89c4.28-5.86,11.74-9.28,19.02-8.75,1.43.1,2.91.74,4.38.6v-30.05l-.45-.45h-13.29c-1.2,0-13.62,8.54-15.94,9.43-2.18.84-3.97-.61-3.53-2.92.16-.83,3.93-6.23,3.61-6.51-3.11.32-5.85-1.4-7.2-4.12-.23-.45-.95-2.02-.95-2.37v-10.42ZM123.85,77.99v-34.28c-.72-.83-2.03-.34-3.02-.45v32.77l3.02,1.96ZM126.88,94.93c0-9.33-7.56-16.89-16.89-16.89s-16.89,7.56-16.89,16.89,7.56,16.89,16.89,16.89,16.89-7.56,16.89-16.89ZM47.43,102.75v10.27h33.83v-10.27h-33.83ZM86.1,103.21v9.82h11.78c-.39-.58-1.22-.85-1.82-1.36-1.94-1.68-3.74-3.91-5.07-6.1-.33-.54-1.09-2.56-1.26-2.67-.46-.31-3.44-.32-3.64.31ZM145.3,145.94c-4.16-20.21-23.41-32.99-43.8-28.24-13.33,3.1-24.47,14.66-26.58,28.24h70.38ZM88.21,117.85H29.46c-1.08,0-4.68,1.95-4.68,3.17v4.98h54.22c2.74-3.11,6.03-5.55,9.21-8.15Z"/>
      <path class="cls-1" d="M74.4,54.09c0,14.59-11.83,26.42-26.42,26.42s-26.42-11.83-26.42-26.42,11.83-26.42,26.42-26.42,26.42,11.83,26.42,26.42ZM66.16,65.91c9.58-15.83-2.43-35.22-20.98-33.22-11.93,1.29-20.19,12.88-18.54,24.58.42,2.99,1.59,6.24,3.44,8.64,2.26-4.56,5.58-8.09,10.11-10.41-7.8-8.25.37-21.37,11.25-17.89,7.62,2.44,9.86,12.11,4.47,17.89,4.7,2.48,7.19,5.38,9.63,9.99.16.3-.16.58.62.43ZM54.02,47.94c0-3.33-2.7-6.02-6.03-6.02s-6.03,2.7-6.03,6.02,2.7,6.02,6.03,6.02,6.03-2.7,6.03-6.02ZM45.55,59.04c-5.57.71-10.57,5.81-11.59,11.26,6.66,6.33,17.57,6.97,25.35,2.2,3.17-1.95,3.18-2.23,1.53-5.64-2.83-5.87-8.9-8.62-15.29-7.81Z"/>
      <path class="cls-1" d="M90.54,11.01l30.89.09c2.23,1.46,1.67,4.36-1.04,4.68-8.93,1.05-19.86-.8-29.01,0-2.84-.33-3.47-3.65-.83-4.77Z"/>
      <path class="cls-1" d="M90.84,28.22l30.52.17c2.01,1.16,1.88,3.15.07,4.44l-30.36.16c-2.83-.33-2.94-3.94-.23-4.77Z"/>
      <path class="cls-1" d="M90.24,19.76l30.45-.07c2.96.34,2.96,4.41-.91,4.84-8.73.97-19.18-.72-28.09,0-2.8-.16-4.04-3.18-1.45-4.77Z"/>
    </g>
  </g>
</svg>